<svg height='300px' width='300px'  fill="#000000" xmlns="http://www.w3.org/2000/svg" xmlns:xlink="http://www.w3.org/1999/xlink" version="1.1" x="0px" y="0px" viewBox="0 0 100 100" style="enable-background:new 0 0 100 100;" xml:space="preserve"><path d="M56.11,15.79c-1.27-2.21-3.56-3.53-6.11-3.53s-4.84,1.32-6.11,3.53L8.46,77.16c-1.28,2.2-1.28,4.84,0,7.05  c1.27,2.21,3.56,3.53,6.11,3.53h70.86c2.55,0,4.84-1.32,6.11-3.53c1.28-2.21,1.28-4.85,0-7.05L56.11,15.79z M87.94,82.13  c-0.52,0.91-1.46,1.45-2.51,1.45H14.57c-1.05,0-1.99-0.54-2.51-1.45c-0.52-0.9-0.52-1.99,0-2.89l35.43-61.37  c0.52-0.91,1.46-1.45,2.51-1.45s1.99,0.54,2.51,1.45l35.43,61.37C88.46,80.14,88.46,81.23,87.94,82.13z"></path><path d="M37.79,62.53c0.51,0.17,1.07,0.17,1.62,0.17c0.13,0,0.27,0,0.4,0c2.65,0.05,5.16,1.03,7.48,2.09  c0.32,0.14,0.63,0.29,0.94,0.44c0.03-0.02,0.07-0.03,0.1-0.05c0.41-0.2,0.81-0.4,1.2-0.6c0.03-0.02,0.06-0.03,0.09-0.05  c-0.09-0.05-0.18-0.09-0.27-0.13c-2.59-1.3-5.82-2.92-7.65-5.67c-0.06-0.09-0.11-0.17-0.17-0.26c-0.25-0.38-0.48-0.74-0.81-1  c-0.36-0.3-0.94-0.45-1.34-0.18c-0.63,0.43-0.34,1.49-0.18,1.92c0.02,0.05,0.01,0.1-0.02,0.15c-0.03,0.04-0.08,0.07-0.13,0.08  c-0.37,0.03-0.75-0.04-1.12-0.11c-0.28-0.05-0.55-0.1-0.79-0.1c-0.25,0-0.48,0.05-0.67,0.22c-0.14,0.12-0.23,0.28-0.28,0.49  c-0.05,0.19-0.05,0.41-0.02,0.62C36.29,61.45,36.94,62.24,37.79,62.53z"></path><path d="M41.07,56.14c0.4,0.43,0.78,0.84,0.84,0.99c0,0,0.08,0.18,0.4,0.32c0.27,0.11,0.7,0.21,1.39,0.16  c0.08,0,0.17-0.01,0.26-0.02c0.45-0.05,0.8,0.04,1.04,0.26c0.43,0.39,0.43,1.1,0.43,1.48v0.15c0.01,0.39,0.84,1.85,2.13,1.85h0.03  c0.02,0,1.58,0.43,2.41,0.51c0.6-0.06,1.58-0.3,2.08-0.43c0,0,0,0,0,0c0,0,0.01,0.01,0.01,0.01c0-0.01,0.01-0.01,0.02-0.02  c0,0,0,0,0,0c0.18-0.05,0.29-0.08,0.3-0.08h0.03c1.29,0,2.12-1.46,2.13-1.85v-0.15c0-0.38,0-1.09,0.43-1.48  c0.24-0.22,0.6-0.3,1.04-0.26c0.1,0.01,0.2,0.02,0.29,0.02c0.71,0.05,1.14-0.06,1.4-0.17c0.29-0.14,0.36-0.29,0.37-0.3  c0.06-0.15,0.44-0.56,0.84-0.99c0.09-0.1,0.18-0.2,0.26-0.29c0.43-0.47,0.39-1.27,0.2-1.51c-0.22-0.28-0.64-1.17-0.41-1.51  c0.21-0.31,0.39-1.41-0.07-1.76c-0.51-0.39-0.07-2-0.06-2.07c1.09-4.09-0.1-6.28-0.11-6.31c-2.14-5.41-8.68-5.1-8.74-5.09  c-0.07,0-6.61-0.32-8.75,5.09c-0.01,0.03-1.2,2.22-0.11,6.31c0.02,0.07,0.45,1.68-0.06,2.07c-0.46,0.35-0.28,1.45-0.07,1.76  c0.24,0.35-0.18,1.23-0.4,1.51c-0.19,0.24-0.23,1.03,0.2,1.51C40.89,55.94,40.98,56.03,41.07,56.14z M51.72,52.39  c0.01-0.15,0.02-0.28,0.03-0.39c0-0.01,0-0.03,0-0.04c0-0.08,0.01-0.15,0.01-0.21c0.01-0.08,0.01-0.16,0.02-0.22  c0.03-0.24,0.07-0.39,0.18-0.5c0.01-0.01,0.02-0.03,0.04-0.04c0.05-0.05,0.11-0.08,0.2-0.11c0.04-0.02,0.07-0.03,0.11-0.04  c0.04-0.01,0.08-0.02,0.13-0.04c0.1-0.03,0.21-0.05,0.34-0.08c0.06-0.01,0.13-0.03,0.21-0.05c0.11,0,2.44-0.13,3.45,0.77  c0.29,0.26,0.45,0.59,0.46,0.97c0.1,2.28-0.63,2.37-0.87,2.41c-0.1,0.01-0.23,0.02-0.39,0.03c0,0,0,0,0,0c-0.11,0-0.24,0-0.39-0.02  h0c-0.04,0-0.09,0-0.13-0.01c-0.01,0-0.02,0-0.04,0c-0.08-0.01-0.16-0.02-0.25-0.04c-0.08-0.01-0.17-0.03-0.26-0.05  c-0.02,0-0.04-0.01-0.06-0.01h0c0,0-0.01,0-0.01,0c-0.06-0.02-0.13-0.03-0.2-0.05s-0.15-0.04-0.22-0.06s-0.15-0.05-0.23-0.07  c-0.08-0.02-0.16-0.05-0.24-0.08c-0.1-0.04-0.2-0.07-0.29-0.11C52.29,53.97,51.6,53.73,51.72,52.39z M48.49,56.18  c0.23-0.46,0.39-0.97,0.58-1.46c0.06-0.16,0.1-0.33,0.16-0.49c0.14-0.36,0.37-0.61,0.79-0.61c0.42,0,0.63,0.28,0.78,0.63  c0.29,0.73,0.58,1.47,0.87,2.22c0.22,0.56-0.3,1.56-0.9,1.68c-0.13,0.03-0.38-0.05-0.44-0.15c-0.12-0.22-0.23-0.45-0.25-0.69  c0-0.04,0.03-0.08,0-0.11c-0.03-0.04-0.12-0.03-0.15,0.01c-0.03,0.03-0.01,0.08-0.01,0.12c-0.06,0.33-0.19,0.7-0.34,0.77  c-0.12,0.06-0.32,0.06-0.44,0.01C48.39,57.78,48.13,56.9,48.49,56.18z M43.09,52.4c0.01-0.38,0.17-0.71,0.46-0.97  c0.78-0.69,2.33-0.78,3.06-0.78c0.22,0,0.36,0.01,0.39,0.01c0.29,0.06,0.51,0.11,0.67,0.16c0.04,0.01,0.08,0.03,0.11,0.04  c0.11,0.04,0.19,0.09,0.24,0.15c0.02,0.02,0.04,0.05,0.05,0.07c0.02,0.03,0.04,0.06,0.05,0.1c0.02,0.04,0.03,0.07,0.04,0.12  c0.03,0.12,0.05,0.27,0.06,0.46c0,0.05,0.01,0.1,0.01,0.15c0,0.02,0,0.05,0,0.08c0.01,0.12,0.02,0.25,0.03,0.39  c0.11,1.34-0.57,1.58-1.61,1.95c-0.1,0.03-0.19,0.07-0.29,0.11c-0.22,0.08-0.44,0.15-0.63,0.2c-0.34,0.09-0.63,0.14-0.89,0.17  c-0.05,0-0.1,0.01-0.14,0.01c-0.05,0-0.08,0-0.12,0c-0.04,0-0.08,0-0.11,0c0,0,0,0,0,0c-0.22,0-0.39,0-0.52-0.02  C43.72,54.78,42.99,54.69,43.09,52.4z"></path><path d="M61.23,67.25c-0.23-0.02-0.47-0.04-0.7-0.01c-0.33,0.03-0.64,0.07-0.97,0.11l-0.43,0.05c-2.56,0.29-5.15-0.73-7.35-1.78  c-0.47,0.22-0.93,0.45-1.39,0.68c1.73,0.88,3.46,1.83,5.09,2.73c0.47,0.26,0.94,0.52,1.29,0.92c0.41,0.46,0.62,1.04,0.82,1.6  c0.18,0.5,0.35,0.97,0.64,1.36c0.64,0.86,1.91,1.19,2.9,0.76c0.23-0.1,0.54-0.28,0.73-0.58c0.42-0.66,0.13-1.55-0.26-2.42  c-0.03-0.08-0.01-0.17,0.07-0.22c0.07-0.04,0.17-0.03,0.22,0.04c0.32,0.39,0.99,0.46,1.43,0.13c0.42-0.31,0.63-0.91,0.5-1.47  C63.57,68.08,62.28,67.33,61.23,67.25z"></path><path d="M63.53,59.46c-0.37-0.32-0.9-0.22-1.47-0.12c-0.37,0.07-0.75,0.14-1.12,0.11c-0.05-0.01-0.1-0.03-0.13-0.08  c-0.03-0.04-0.03-0.1-0.02-0.15c0.15-0.43,0.44-1.49-0.18-1.92c-0.4-0.27-0.97-0.12-1.34,0.18c-0.33,0.26-0.56,0.62-0.81,1  c-0.06,0.09-0.11,0.18-0.17,0.26c-1.84,2.76-5.06,4.37-7.65,5.67c-0.19,0.09-0.38,0.19-0.57,0.29c0,0,0,0,0,0c0,0,0,0,0,0  c-0.57,0.29-1.17,0.59-1.78,0.88c-2.22,1.06-4.85,2.11-7.43,1.81l-0.43-0.05c-0.32-0.04-0.64-0.08-0.96-0.11  c-0.23-0.02-0.47,0-0.7,0.01c-1.06,0.08-2.34,0.83-2.59,1.9c-0.13,0.56,0.08,1.16,0.5,1.47c0.44,0.32,1.11,0.26,1.43-0.13  c0.03-0.04,0.08-0.06,0.13-0.06c0.03,0,0.06,0.01,0.09,0.03c0.07,0.05,0.1,0.14,0.07,0.22c-0.38,0.86-0.68,1.75-0.26,2.42  c0.19,0.3,0.5,0.48,0.73,0.58c0.98,0.44,2.25,0.1,2.9-0.76c0.3-0.39,0.46-0.86,0.64-1.36c0.2-0.56,0.41-1.14,0.82-1.6  c0.35-0.4,0.82-0.66,1.27-0.91c1.75-0.96,3.59-1.97,5.42-2.89c0.59-0.3,1.18-0.59,1.78-0.87c0.34-0.16,0.67-0.32,1.01-0.47  c2.31-1.06,4.82-2.04,7.48-2.09c0.13,0,0.27,0,0.4,0c0.55,0,1.11,0,1.62-0.17c0.85-0.29,1.5-1.08,1.62-1.97c0,0,0,0,0,0  c0.03-0.22,0.02-0.44-0.02-0.62C63.76,59.74,63.66,59.57,63.53,59.46z"></path></svg>