<svg height='300px' width='300px'  fill="#000000" xmlns="http://www.w3.org/2000/svg" viewBox="0 0 53 68" x="0px" y="0px"><path fill="#000000" fill-rule="evenodd" d="M668,678.997538 C668,666.299573 678.302158,656 690.996135,656 L692.003865,656 C704.706881,656 715,666.292435 715,679 C715,684.033936 713.838377,687.795382 711.288854,692.894427 C711.120228,693.23168 710.240738,694.96274 710.007067,695.434533 C709.556001,696.345257 709.223683,697.06686 708.948234,697.748926 C708.308738,699.332438 708,700.668204 708,702 C708,704.765483 708.688934,707.607337 709.843271,710.348886 C710.250791,711.316747 710.687133,712.20034 711.121395,712.978393 C711.375908,713.434395 711.567238,713.745306 711.664101,713.8906 C712.388754,714.977579 711.893745,716.456151 710.660701,716.887717 L690.660701,723.887717 C689.607124,724.256468 688.455621,723.691418 688.102633,722.632456 L684.558482,712 L678,712 C672.473754,712 668,707.527356 668,701.994969 L668,697 L665.997913,697 C663.479643,697 661.948659,694.743189 662.884782,692.40288 L668,679.614835 L668,678.997538 Z M706.156729,711.901114 C704.811066,708.705163 704,705.359517 704,702 C704,700.099653 704.421501,698.276018 705.239266,696.251074 C705.558543,695.460484 705.930327,694.653181 706.422621,693.659217 C706.667466,693.164864 707.551647,691.42457 707.711146,691.105573 C710.007777,686.51231 711,683.299397 711,679 C711,668.501633 702.497801,660 692.003865,660 L690.996135,660 C680.511073,660 672,668.508937 672,678.997538 L672,680 C672,680.254439 671.95145,680.506541 671.856953,680.742781 L666.954066,693 L670,693 C671.104569,693 672,693.895431 672,695 L672,701.994969 C672,705.317995 674.682671,708 678,708 L686,708 C686.860861,708 687.625139,708.55086 687.897367,709.367544 L691.255401,719.441648 L707.078319,713.903626 C706.779884,713.310315 706.467839,712.639999 706.156729,711.901114 Z M682,680 C682,681.104569 681.104569,682 680,682 C678.895431,682 678,681.104569 678,680 C678,672.819874 683.819386,667 691,667 C698.180126,667 704,672.819386 704,680 C704,681.104569 703.104569,682 702,682 C700.895431,682 700,681.104569 700,680 C700,675.0286 695.971062,671 691,671 C686.0286,671 682,675.028938 682,680 Z M690.211596,680.104671 L690.211596,680.104671 L692.211146,676.105573 C692.705124,675.117616 693.90647,674.717167 694.894427,675.211146 C695.882384,675.705124 696.282833,676.90647 695.788854,677.894427 L693.789335,681.893467 C693.925275,682.235853 694,682.6092 694,683 C694,684.656854 692.656854,686 691,686 C689.343146,686 688,684.656854 688,683 C688,681.615986 688.937207,680.450869 690.211596,680.104671 Z" transform="translate(-662 -656)"></path></svg>