<?xml version="1.0" encoding="utf-8"?>
<svg viewBox="83.798 180.268 88.948 76.857" width="88.948" height="76.857" xmlns="http://www.w3.org/2000/svg">
  <path d="M 128.344 180.268 C 142.662 180.268 155.252 190.157 158.715 203.937 C 165.677 206.604 170.975 212.635 172.693 219.919 C 172.944 221.002 172.281 222.085 171.199 222.336 C 170.116 222.595 169.033 221.924 168.782 220.841 C 167.306 214.541 162.554 209.378 156.389 207.374 C 155.709 207.15 155.199 206.577 155.046 205.879 C 152.389 193.369 141.158 184.286 128.344 184.286 C 115.458 184.286 104.219 193.423 101.606 206.031 C 101.463 206.72 100.961 207.284 100.299 207.517 C 92.827 210.139 87.807 217.226 87.807 225.145 C 87.807 235.293 95.744 243.49 105.874 243.812 C 105.928 243.812 105.982 243.812 106.035 243.821 L 109.293 243.821 C 110.393 243.821 111.297 244.716 111.297 245.825 C 111.297 246.935 110.402 247.83 109.293 247.83 L 105.812 247.83 C 105.713 247.83 105.615 247.83 105.516 247.812 C 93.319 247.293 83.798 237.378 83.798 225.136 C 83.798 215.884 89.427 207.579 97.928 204.116 C 101.328 190.228 113.937 180.268 128.344 180.268 Z" id="Combined-Shape" fill="#313132" stroke="none" stroke-width="1" fill-rule="evenodd"/>
  <g transform="matrix(1, 0, 0, 1, 0, -140)">
    <text style="fill: rgb(51, 51, 51); font-family: Arial, sans-serif; font-size: 40px; font-weight: 700; white-space: pre;" x="125.278" y="389.111">O</text>
    <text style="fill: rgb(51, 51, 51); font-family: Arial, sans-serif; font-size: 24px; font-weight: 700; white-space: pre;" x="155.278" y="388.222">2</text>
  </g>
</svg>