<?xml version="1.0" encoding="UTF-8" standalone="no"?>
<svg
   xmlns:dc="http://purl.org/dc/elements/1.1/"
   xmlns:cc="http://creativecommons.org/ns#"
   xmlns:rdf="http://www.w3.org/1999/02/22-rdf-syntax-ns#"
   xmlns:svg="http://www.w3.org/2000/svg"
   xmlns="http://www.w3.org/2000/svg"
   xmlns:sodipodi="http://sodipodi.sourceforge.net/DTD/sodipodi-0.dtd"
   xmlns:inkscape="http://www.inkscape.org/namespaces/inkscape"
   inkscape:export-ydpi="272.01999"
   inkscape:export-xdpi="272.01999"
   inkscape:export-filename="C:\Cloud\air-Q Dropbox\air-Q Teamordner\CI und Design\Logo_air-Q\Vektor\Air-Q LOGO text grau_kleiner.png"
   sodipodi:docname="Air-Q LOGO text grau.svg"
   inkscape:version="1.0 (4035a4fb49, 2020-05-01)"
   id="svg2"
   xml:space="preserve"
   enable-background="new 0 0 282.333 123"
   viewBox="0 0 282.333 123"
   height="123px"
   width="282.333px"
   y="0px"
   x="0px"
   version="1.1"><metadata
   id="metadata384"><rdf:RDF><cc:Work
       rdf:about=""><dc:format>image/svg+xml</dc:format><dc:type
         rdf:resource="http://purl.org/dc/dcmitype/StillImage" /><dc:title /></cc:Work></rdf:RDF></metadata><defs
   id="defs382" /><sodipodi:namedview
   inkscape:document-rotation="0"
   inkscape:current-layer="svg2"
   inkscape:window-maximized="0"
   inkscape:window-y="0"
   inkscape:window-x="0"
   inkscape:cy="61.5"
   inkscape:cx="-3.0115521"
   inkscape:zoom="1.3282188"
   showgrid="false"
   id="namedview380"
   inkscape:window-height="743"
   inkscape:window-width="1561"
   inkscape:pageshadow="2"
   inkscape:pageopacity="0"
   guidetolerance="10"
   gridtolerance="10"
   objecttolerance="10"
   borderopacity="1"
   bordercolor="#666666"
   pagecolor="#ffffff" />
<g
   style="fill:#2f3641;fill-opacity:1"
   id="PANTONE_306_C">
	<g
   style="fill:#2f3641;fill-opacity:1"
   id="g5">
		<g
   style="fill:#2f3641;fill-opacity:1"
   id="g7">
			<path
   style="fill:#2f3641;fill-opacity:1"
   id="path9"
   d="M265.825,68.841l10.508,11.352h-9.596l-6.453-6.993c-2.208,1.193-4.448,2.083-6.724,2.669     c-2.275,0.585-4.651,0.878-7.128,0.878c-3.357,0-6.646-0.664-9.866-1.993c-3.221-1.328-6.036-3.176-8.446-5.541     c-2.5-2.432-4.409-5.214-5.727-8.345s-1.977-6.465-1.977-10.001c0-3.536,0.659-6.87,1.977-10c1.317-3.13,3.227-5.913,5.727-8.345     c2.478-2.433,5.321-4.296,8.531-5.591c3.209-1.295,6.616-1.943,10.22-1.943c3.582,0,6.972,0.648,10.17,1.943     c3.198,1.295,6.036,3.159,8.514,5.591c2.5,2.456,4.415,5.249,5.744,8.379c1.328,3.131,1.993,6.453,1.993,9.967     c0,3.425-0.637,6.673-1.909,9.747S268.258,66.431,265.825,68.841z M255.791,57.861l4.764,5.102     c1.509-1.824,2.612-3.722,3.311-5.692s1.048-4.105,1.048-6.403c0-2.522-0.445-4.898-1.335-7.128s-2.19-4.212-3.901-5.946     c-1.734-1.757-3.706-3.108-5.913-4.055c-2.208-0.946-4.505-1.419-6.893-1.419c-2.41,0-4.719,0.473-6.926,1.419     c-2.208,0.946-4.167,2.298-5.879,4.055c-1.712,1.734-3.019,3.716-3.919,5.946c-0.901,2.23-1.352,4.606-1.352,7.128     c0,5.181,1.751,9.545,5.254,13.093c3.502,3.547,7.844,5.321,13.024,5.321c1.396,0,2.73-0.152,4.004-0.456     c1.271-0.305,2.539-0.783,3.801-1.437l-8.852-9.527H255.791z"
   fill="#00B5DD" />
			<g
   style="fill:#2f3641;fill-opacity:1"
   id="g11">
				<path
   style="fill:#2f3641;fill-opacity:1"
   id="path13"
   d="M184.4,29.509c-2.396-1.127-5.251-0.102-6.38,2.287c-1.125,2.391-0.104,5.257,2.288,6.386      c2.403,1.127,5.258,0.095,6.384-2.297C187.819,33.495,186.793,30.64,184.4,29.509z"
   fill="#00B5DD" />
			</g>
		</g>
	</g>
	<g
   style="fill:#2f3641;fill-opacity:1"
   id="g15">
		<g
   style="fill:#2f3641;fill-opacity:1"
   id="g17">
			<g
   style="fill:#2f3641;fill-opacity:1"
   id="g19">
				<path
   style="fill:#2f3641;fill-opacity:1"
   id="path21"
   d="M118.331,58.582c-3.07-0.022-5.58,2.447-5.611,5.51c-0.027,3.07,2.446,5.588,5.515,5.614      c3.078,0.021,5.586-2.451,5.611-5.52C123.873,61.115,121.399,58.609,118.331,58.582z"
   fill="#00B5DD" />
			</g>
			<g
   style="fill:#2f3641;fill-opacity:1"
   id="g23">
				<path
   style="fill:#2f3641;fill-opacity:1"
   id="path25"
   d="M100.658,80.135c2.361,0.436,4.63-1.125,5.067-3.48c0.436-2.358-1.125-4.637-3.482-5.074      c-2.369-0.434-4.635,1.133-5.07,3.49C96.737,77.428,98.298,79.696,100.658,80.135z"
   fill="#00B5DD" />
			</g>
		</g>
		<g
   style="fill:#2f3641;fill-opacity:1"
   id="g27">
			<path
   style="fill:#2f3641;fill-opacity:1"
   id="path29"
   d="M67.294,6.542c-0.51-3.026-3.377-5.07-6.401-4.566c-3.027,0.507-5.079,3.378-4.57,6.403     c0.515,3.035,3.384,5.076,6.411,4.567C65.762,12.439,67.802,9.57,67.294,6.542z"
   fill="#00B5DD" />
		</g>
		<g
   style="fill:#2f3641;fill-opacity:1"
   id="g31">
			<path
   style="fill:#2f3641;fill-opacity:1"
   id="path33"
   d="M67.294,114.473c-0.51-3.028-3.377-5.068-6.401-4.567c-3.027,0.509-5.079,3.379-4.57,6.404     c0.515,3.036,3.384,5.076,6.411,4.567C65.762,120.371,67.802,117.501,67.294,114.473z"
   fill="#00B5DD" />
		</g>
		<g
   style="fill:#2f3641;fill-opacity:1"
   id="g35">
			<path
   style="fill:#2f3641;fill-opacity:1"
   id="path37"
   d="M30.734,15.856c-2.337-1.993-5.849-1.714-7.843,0.616c-1.995,2.337-1.72,5.856,0.615,7.849     c2.346,1.995,5.857,1.713,7.851-0.624S33.07,17.849,30.734,15.856z"
   fill="#00B5DD" />
		</g>
		<g
   style="fill:#2f3641;fill-opacity:1"
   id="g39">
			<path
   style="fill:#2f3641;fill-opacity:1"
   id="path41"
   d="M100.11,98.536c-2.336-1.992-5.849-1.715-7.844,0.616c-1.994,2.334-1.719,5.854,0.617,7.848     c2.346,1.995,5.856,1.712,7.85-0.623C102.727,104.041,102.446,100.529,100.11,98.536z"
   fill="#00B5DD" />
		</g>
		<g
   style="fill:#2f3641;fill-opacity:1"
   id="g43">
			<path
   style="fill:#2f3641;fill-opacity:1"
   id="path45"
   d="M8.711,46.495c-3.069-0.023-5.579,2.446-5.609,5.512c-0.026,3.068,2.446,5.588,5.514,5.613     c3.077,0.021,5.587-2.452,5.612-5.521C14.253,49.029,11.781,46.521,8.711,46.495z"
   fill="#00B5DD" />
		</g>
		<g
   style="fill:#2f3641;fill-opacity:1"
   id="g47">
			<path
   style="fill:#2f3641;fill-opacity:1"
   id="path49"
   d="M127.89,42.022c-1.887-0.016-3.429,1.502-3.447,3.384c-0.016,1.885,1.503,3.432,3.387,3.449     c1.892,0.012,3.432-1.506,3.446-3.391C131.293,43.579,129.773,42.038,127.89,42.022z"
   fill="#00B5DD" />
		</g>
		<g
   style="fill:#2f3641;fill-opacity:1"
   id="g51">
			<path
   style="fill:#2f3641;fill-opacity:1"
   id="path53"
   d="M11.534,84.12c-2.367,1.955-2.702,5.461-0.754,7.828c1.953,2.367,5.466,2.71,7.833,0.753     c2.372-1.961,2.705-5.469,0.75-7.836C17.409,82.498,13.902,82.165,11.534,84.12z"
   fill="#00B5DD" />
		</g>
		<g
   style="fill:#2f3641;fill-opacity:1"
   id="g55">
			<path
   style="fill:#2f3641;fill-opacity:1"
   id="path57"
   d="M37.883,111.127c-0.556,3.016,1.439,5.917,4.452,6.479c3.02,0.559,5.929-1.438,6.486-4.458     c0.555-3.023-1.445-5.922-4.461-6.481C41.341,106.109,38.442,108.108,37.883,111.127z"
   fill="#00B5DD" />
		</g>
		<g
   style="fill:#2f3641;fill-opacity:1"
   id="g59">
			<path
   style="fill:#2f3641;fill-opacity:1"
   id="path61"
   d="M74.798,9.706c-0.556,3.018,1.439,5.917,4.453,6.48c3.019,0.559,5.926-1.439,6.485-4.456     c0.554-3.027-1.446-5.925-4.462-6.484C78.256,4.688,75.356,6.689,74.798,9.706z"
   fill="#00B5DD" />
		</g>
		<g
   style="fill:#2f3641;fill-opacity:1"
   id="g63">
			<path
   style="fill:#2f3641;fill-opacity:1"
   id="path65"
   d="M75.426,114.879c1.515,2.67,4.908,3.609,7.578,2.102c2.673-1.511,3.619-4.912,2.105-7.582     c-1.521-2.678-4.917-3.613-7.587-2.102C74.85,108.812,73.914,112.208,75.426,114.879z"
   fill="#00B5DD" />
		</g>
		<g
   style="fill:#2f3641;fill-opacity:1"
   id="g67">
			<path
   style="fill:#2f3641;fill-opacity:1"
   id="path69"
   d="M38.512,13.458c1.514,2.669,4.908,3.609,7.579,2.102c2.673-1.511,3.616-4.913,2.104-7.583     c-1.522-2.676-4.918-3.612-7.587-2.099C37.936,7.39,37,10.787,38.512,13.458z"
   fill="#00B5DD" />
		</g>
		<g
   style="fill:#2f3641;fill-opacity:1"
   id="g71">
			<path
   style="fill:#2f3641;fill-opacity:1"
   id="path73"
   d="M106.597,93.622c2.877,1.072,6.081-0.392,7.157-3.261c1.077-2.874-0.386-6.09-3.261-7.162     c-2.885-1.071-6.088,0.393-7.162,3.269C102.257,89.345,103.723,92.546,106.597,93.622z"
   fill="#00B5DD" />
		</g>
		<g
   style="fill:#2f3641;fill-opacity:1"
   id="g75">
			<path
   style="fill:#2f3641;fill-opacity:1"
   id="path77"
   d="M13.128,39.656c2.876,1.073,6.08-0.389,7.157-3.261c1.076-2.875-0.388-6.088-3.262-7.162     c-2.885-1.071-6.089,0.393-7.161,3.27C8.787,35.379,10.254,38.583,13.128,39.656z"
   fill="#00B5DD" />
		</g>
		<g
   style="fill:#2f3641;fill-opacity:1"
   id="g79">
			<path
   style="fill:#2f3641;fill-opacity:1"
   id="path81"
   d="M10.521,76.039c2.893-1.026,4.406-4.205,3.387-7.097c-1.025-2.891-4.21-4.412-7.102-3.386     c-2.897,1.032-4.41,4.213-3.383,7.104C4.45,75.553,7.63,77.063,10.521,76.039z"
   fill="#00B5DD" />
		</g>
		<g
   style="fill:#2f3641;fill-opacity:1"
   id="g83">
			<path
   style="fill:#2f3641;fill-opacity:1"
   id="path85"
   d="M107.205,9.245c0.983-1.672,0.424-3.826-1.242-4.81c-1.671-0.984-3.831-0.427-4.813,1.243     c-0.984,1.678-0.424,3.831,1.247,4.814C104.068,11.476,106.221,10.915,107.205,9.245z"
   fill="#00B5DD" />
		</g>
		<g
   style="fill:#2f3641;fill-opacity:1"
   id="g87">
			<path
   style="fill:#2f3641;fill-opacity:1"
   id="path89"
   d="M31.914,105.588c1.555-2.646,0.672-6.054-1.967-7.613c-2.646-1.559-6.063-0.675-7.619,1.97     c-1.556,2.655-0.67,6.063,1.976,7.618C26.95,109.12,30.358,108.232,31.914,105.588z"
   fill="#00B5DD" />
		</g>
		<g
   style="fill:#2f3641;fill-opacity:1"
   id="g91">
			<path
   style="fill:#2f3641;fill-opacity:1"
   id="path93"
   d="M65.142,28.09c-0.31-1.838-2.053-3.079-3.886-2.773c-1.843,0.307-3.088,2.051-2.776,3.89     c0.31,1.844,2.054,3.081,3.892,2.775C64.208,31.674,65.45,29.93,65.142,28.09z"
   fill="#00B5DD" />
		</g>
		<g
   style="fill:#2f3641;fill-opacity:1"
   id="g95">
			<path
   style="fill:#2f3641;fill-opacity:1"
   id="path97"
   d="M65.142,93.651c-0.31-1.842-2.053-3.086-3.886-2.778c-1.843,0.313-3.088,2.056-2.776,3.893     c0.31,1.844,2.054,3.078,3.892,2.772C64.208,97.231,65.45,95.488,65.142,93.651z"
   fill="#00B5DD" />
		</g>
		<g
   style="fill:#2f3641;fill-opacity:1"
   id="g99">
			<path
   style="fill:#2f3641;fill-opacity:1"
   id="path101"
   d="M42.934,33.746c-1.421-1.21-3.553-1.04-4.763,0.375c-1.212,1.418-1.044,3.559,0.375,4.767     c1.422,1.211,3.556,1.042,4.768-0.376C44.525,37.091,44.352,34.958,42.934,33.746z"
   fill="#00B5DD" />
		</g>
		<g
   style="fill:#2f3641;fill-opacity:1"
   id="g103">
			<path
   style="fill:#2f3641;fill-opacity:1"
   id="path105"
   d="M85.072,83.963c-1.419-1.206-3.55-1.041-4.761,0.374c-1.214,1.419-1.044,3.562,0.374,4.771     c1.423,1.208,3.559,1.039,4.768-0.38C86.663,87.309,86.488,85.18,85.072,83.963z"
   fill="#00B5DD" />
		</g>
		<g
   style="fill:#2f3641;fill-opacity:1"
   id="g107">
			<path
   style="fill:#2f3641;fill-opacity:1"
   id="path109"
   d="M29.557,52.358c-1.864-0.016-3.388,1.487-3.406,3.346c-0.017,1.869,1.485,3.394,3.35,3.416     c1.87,0.003,3.392-1.491,3.408-3.357C32.924,53.899,31.421,52.375,29.557,52.358z"
   fill="#00B5DD" />
		</g>
		<g
   style="fill:#2f3641;fill-opacity:1"
   id="g111">
			<path
   style="fill:#2f3641;fill-opacity:1"
   id="path113"
   d="M94.118,63.74c-1.863-0.008-3.392,1.487-3.404,3.354c-0.018,1.862,1.479,3.39,3.347,3.407     c1.869,0.008,3.39-1.486,3.41-3.355C97.484,65.277,95.979,63.757,94.118,63.74z"
   fill="#00B5DD" />
		</g>
		<g
   style="fill:#2f3641;fill-opacity:1"
   id="g115">
			<path
   style="fill:#2f3641;fill-opacity:1"
   id="path117"
   d="M31.273,75.212c-1.438,1.183-1.643,3.319-0.46,4.754c1.187,1.436,3.323,1.647,4.759,0.456     c1.441-1.194,1.643-3.318,0.457-4.757C34.84,74.222,32.71,74.022,31.273,75.212z"
   fill="#00B5DD" />
		</g>
		<g
   style="fill:#2f3641;fill-opacity:1"
   id="g119">
			<path
   style="fill:#2f3641;fill-opacity:1"
   id="path121"
   d="M96.327,34.262c-1.439,1.188-1.641,3.318-0.463,4.754c1.191,1.442,3.322,1.645,4.757,0.459     c1.444-1.193,1.645-3.322,0.459-4.759C99.896,33.277,97.759,33.075,96.327,34.262z"
   fill="#00B5DD" />
		</g>
		<g
   style="fill:#2f3641;fill-opacity:1"
   id="g123">
			<path
   style="fill:#2f3641;fill-opacity:1"
   id="path125"
   d="M47.279,91.612c-0.338,1.841,0.872,3.599,2.704,3.936c1.832,0.345,3.6-0.87,3.937-2.702     c0.336-1.836-0.875-3.603-2.708-3.939C49.377,88.571,47.615,89.785,47.279,91.612z"
   fill="#00B5DD" />
		</g>
		<g
   style="fill:#2f3641;fill-opacity:1"
   id="g127">
			<path
   style="fill:#2f3641;fill-opacity:1"
   id="path129"
   d="M69.701,30.011c-0.339,1.834,0.873,3.595,2.703,3.936c1.831,0.341,3.601-0.875,3.938-2.706     c0.335-1.838-0.875-3.6-2.709-3.938C71.798,26.964,70.038,28.179,69.701,30.011z"
   fill="#00B5DD" />
		</g>
		<g
   style="fill:#2f3641;fill-opacity:1"
   id="g131">
			<path
   style="fill:#2f3641;fill-opacity:1"
   id="path133"
   d="M70.079,93.897c0.921,1.623,2.986,2.191,4.605,1.275c1.621-0.921,2.196-2.988,1.278-4.607     c-0.926-1.621-2.985-2.194-4.608-1.274C69.73,90.214,69.164,92.273,70.079,93.897z"
   fill="#00B5DD" />
		</g>
		<g
   style="fill:#2f3641;fill-opacity:1"
   id="g135">
			<path
   style="fill:#2f3641;fill-opacity:1"
   id="path137"
   d="M47.657,32.29c0.919,1.624,2.984,2.193,4.605,1.278c1.621-0.918,2.195-2.985,1.279-4.606     c-0.926-1.625-2.986-2.193-4.609-1.273C47.308,28.605,46.741,30.668,47.657,32.29z"
   fill="#00B5DD" />
		</g>
		<g
   style="fill:#2f3641;fill-opacity:1"
   id="g139">
			<path
   style="fill:#2f3641;fill-opacity:1"
   id="path141"
   d="M89.013,80.981c1.75,0.653,3.698-0.232,4.349-1.978c0.65-1.743-0.234-3.7-1.983-4.355     c-1.754-0.651-3.697,0.245-4.346,1.99C86.379,78.381,87.267,80.327,89.013,80.981z"
   fill="#00B5DD" />
		</g>
		<g
   style="fill:#2f3641;fill-opacity:1"
   id="g143">
			<path
   style="fill:#2f3641;fill-opacity:1"
   id="path145"
   d="M32.242,48.205c1.746,0.649,3.69-0.236,4.347-1.98c0.652-1.747-0.235-3.699-1.982-4.351     c-1.752-0.651-3.698,0.238-4.351,1.985C29.603,45.604,30.495,47.551,32.242,48.205z"
   fill="#00B5DD" />
		</g>
		<g
   style="fill:#2f3641;fill-opacity:1"
   id="g147">
			<path
   style="fill:#2f3641;fill-opacity:1"
   id="path149"
   d="M30.659,70.306c1.756-0.624,2.675-2.562,2.057-4.311c-0.624-1.765-2.558-2.688-4.315-2.063     c-1.761,0.629-2.679,2.566-2.055,4.317C26.969,70.01,28.902,70.93,30.659,70.306z"
   fill="#00B5DD" />
		</g>
		<g
   style="fill:#2f3641;fill-opacity:1"
   id="g151">
			<path
   style="fill:#2f3641;fill-opacity:1"
   id="path153"
   d="M85.789,38.031c0.946-1.608,0.408-3.678-1.195-4.623c-1.603-0.947-3.683-0.41-4.628,1.195     c-0.945,1.613-0.405,3.684,1.202,4.628C82.774,40.176,84.843,39.636,85.789,38.031z"
   fill="#00B5DD" />
		</g>
		<g
   style="fill:#2f3641;fill-opacity:1"
   id="g155">
			<path
   style="fill:#2f3641;fill-opacity:1"
   id="path157"
   d="M43.653,88.25c0.944-1.603,0.407-3.676-1.195-4.623c-1.607-0.946-3.684-0.412-4.63,1.197     c-0.945,1.608-0.404,3.68,1.202,4.623C40.636,90.393,42.708,89.859,43.653,88.25z"
   fill="#00B5DD" />
		</g>
		<g
   style="fill:#2f3641;fill-opacity:1"
   id="g159">
			<path
   style="fill:#2f3641;fill-opacity:1"
   id="path161"
   d="M58.583,18.431c-0.805-2.259-3.29-3.444-5.547-2.646c-2.264,0.801-3.452,3.29-2.649,5.551     c0.805,2.267,3.294,3.447,5.554,2.646C58.202,23.18,59.383,20.694,58.583,18.431z"
   fill="#00B5DD" />
		</g>
		<g
   style="fill:#2f3641;fill-opacity:1"
   id="g163">
			<path
   style="fill:#2f3641;fill-opacity:1"
   id="path165"
   d="M73.234,101.519c-0.805-2.262-3.29-3.446-5.548-2.646c-2.264,0.805-3.453,3.29-2.649,5.549     c0.808,2.27,3.293,3.446,5.555,2.647C72.853,106.267,74.033,103.781,73.234,101.519z"
   fill="#00B5DD" />
		</g>
		<g
   style="fill:#2f3641;fill-opacity:1"
   id="g167">
			<path
   style="fill:#2f3641;fill-opacity:1"
   id="path169"
   d="M31.701,30.563c-2.07-1.215-4.735-0.524-5.953,1.539c-1.219,2.069-0.529,4.743,1.539,5.96     c2.075,1.216,4.741,0.523,5.958-1.545C34.465,34.447,33.769,31.781,31.701,30.563z"
   fill="#00B5DD" />
		</g>
		<g
   style="fill:#2f3641;fill-opacity:1"
   id="g171">
			<path
   style="fill:#2f3641;fill-opacity:1"
   id="path173"
   d="M96.33,84.793c-2.07-1.213-4.734-0.526-5.953,1.539c-1.22,2.069-0.528,4.742,1.54,5.958     c2.075,1.215,4.742,0.523,5.958-1.543C99.092,88.676,98.399,86.014,96.33,84.793z"
   fill="#00B5DD" />
		</g>
		<g
   style="fill:#2f3641;fill-opacity:1"
   id="g175">
			<path
   style="fill:#2f3641;fill-opacity:1"
   id="path177"
   d="M18.907,57.141c-2.366,0.398-3.963,2.641-3.571,5.002c0.398,2.369,2.643,3.97,5.008,3.575     c2.373-0.404,3.967-2.645,3.569-5.012C23.517,58.339,21.273,56.745,18.907,57.141z"
   fill="#00B5DD" />
		</g>
		<g
   style="fill:#2f3641;fill-opacity:1"
   id="g179">
			<path
   style="fill:#2f3641;fill-opacity:1"
   id="path181"
   d="M26.187,85.722c-1.557,1.823-1.339,4.57,0.481,6.129c1.825,1.555,4.578,1.343,6.133-0.483     c1.561-1.836,1.34-4.579-0.483-6.134C30.489,83.672,27.744,83.894,26.187,85.722z"
   fill="#00B5DD" />
		</g>
		<g
   style="fill:#2f3641;fill-opacity:1"
   id="g183">
			<path
   style="fill:#2f3641;fill-opacity:1"
   id="path185"
   d="M153.07,26.79c1.158-0.804,1.445-2.396,0.646-3.555c-0.807-1.16-2.4-1.449-3.558-0.645     c-1.162,0.81-1.446,2.402-0.643,3.56C150.318,27.308,151.913,27.595,153.07,26.79z"
   fill="#00B5DD" />
		</g>
		<g
   style="fill:#2f3641;fill-opacity:1"
   id="g187">
			<path
   style="fill:#2f3641;fill-opacity:1"
   id="path189"
   d="M50.137,102.933c-0.018,2.401,1.91,4.362,4.307,4.384c2.399,0.024,4.369-1.911,4.387-4.309     c0.016-2.402-1.914-4.367-4.313-4.385C52.118,98.604,50.158,100.537,50.137,102.933z"
   fill="#00B5DD" />
		</g>
		<g
   style="fill:#2f3641;fill-opacity:1"
   id="g191">
			<path
   style="fill:#2f3641;fill-opacity:1"
   id="path193"
   d="M64.79,19.846c-0.02,2.401,1.909,4.362,4.307,4.385c2.397,0.021,4.367-1.911,4.386-4.31     c0.015-2.405-1.915-4.366-4.314-4.385C66.767,15.517,64.806,17.449,64.79,19.846z"
   fill="#00B5DD" />
		</g>
		<g
   style="fill:#2f3641;fill-opacity:1"
   id="g195">
			<path
   style="fill:#2f3641;fill-opacity:1"
   id="path197"
   d="M79.546,100.729c1.53,1.85,4.271,2.113,6.121,0.589c1.851-1.529,2.118-4.275,0.592-6.124     c-1.536-1.852-4.276-2.113-6.127-0.586C78.28,96.137,78.021,98.876,79.546,100.729z"
   fill="#00B5DD" />
		</g>
		<g
   style="fill:#2f3641;fill-opacity:1"
   id="g199">
			<path
   style="fill:#2f3641;fill-opacity:1"
   id="path201"
   d="M37.363,27.662c1.528,1.851,4.269,2.113,6.12,0.589c1.852-1.525,2.117-4.272,0.59-6.124     c-1.536-1.853-4.274-2.113-6.125-0.585S35.836,25.811,37.363,27.662z"
   fill="#00B5DD" />
		</g>
		<g
   style="fill:#2f3641;fill-opacity:1"
   id="g203">
			<path
   style="fill:#2f3641;fill-opacity:1"
   id="path205"
   d="M142.675,9.056c-1.7-0.801-3.727-0.072-4.528,1.623c-0.799,1.697-0.074,3.731,1.624,4.533     c1.707,0.8,3.732,0.067,4.532-1.63C145.101,11.885,144.373,9.858,142.675,9.056z"
   fill="#00B5DD" />
		</g>
		<g
   style="fill:#2f3641;fill-opacity:1"
   id="g207">
			<path
   style="fill:#2f3641;fill-opacity:1"
   id="path209"
   d="M21.379,51.277c2.358,0.433,4.625-1.126,5.067-3.482c0.435-2.36-1.125-4.635-3.485-5.071     c-2.367-0.434-4.632,1.129-5.069,3.488C17.455,48.571,19.02,50.84,21.379,51.277z"
   fill="#00B5DD" />
		</g>
		<g
   style="fill:#2f3641;fill-opacity:1"
   id="g211">
			<path
   style="fill:#2f3641;fill-opacity:1"
   id="path213"
   d="M121.083,27.039c1.727-0.98,2.334-3.175,1.358-4.9c-0.977-1.727-3.173-2.336-4.899-1.36     c-1.731,0.982-2.334,3.176-1.358,4.902C117.163,27.41,119.356,28.015,121.083,27.039z"
   fill="#00B5DD" />
		</g>
		<g
   style="fill:#2f3641;fill-opacity:1"
   id="g215">
			<path
   style="fill:#2f3641;fill-opacity:1"
   id="path217"
   d="M24.312,79.639c2.086-1.184,2.82-3.837,1.643-5.923c-1.183-2.091-3.841-2.828-5.928-1.649     c-2.09,1.192-2.821,3.849-1.638,5.933C19.569,80.09,22.226,80.822,24.312,79.639z"
   fill="#00B5DD" />
		</g>
		<g
   style="fill:#2f3641;fill-opacity:1"
   id="g219">
			<path
   style="fill:#2f3641;fill-opacity:1"
   id="path221"
   d="M89.932,25.43c0.839-2.25-0.304-4.753-2.548-5.593c-2.245-0.841-4.757,0.302-5.598,2.549     c-0.836,2.255,0.308,4.759,2.557,5.598C86.59,28.822,89.092,27.677,89.932,25.43z"
   fill="#00B5DD" />
		</g>
		<g
   style="fill:#2f3641;fill-opacity:1"
   id="g223">
			<path
   style="fill:#2f3641;fill-opacity:1"
   id="path225"
   d="M44.79,99.481c0.839-2.246-0.303-4.752-2.547-5.594c-2.248-0.84-4.76,0.303-5.599,2.55     c-0.838,2.257,0.309,4.761,2.555,5.599C41.447,102.873,43.951,101.729,44.79,99.481z"
   fill="#00B5DD" />
		</g>
		<g
   style="fill:#2f3641;fill-opacity:1"
   id="g227">
			<path
   style="fill:#2f3641;fill-opacity:1"
   id="path229"
   d="M59.87,35.598c-0.481-1.36-1.976-2.071-3.331-1.591c-1.361,0.481-2.076,1.977-1.593,3.334     c0.486,1.362,1.979,2.073,3.336,1.589C59.641,38.449,60.353,36.955,59.87,35.598z"
   fill="#00B5DD" />
		</g>
		<g
   style="fill:#2f3641;fill-opacity:1"
   id="g231">
			<path
   style="fill:#2f3641;fill-opacity:1"
   id="path233"
   d="M68.672,85.514c-0.484-1.357-1.976-2.073-3.333-1.589c-1.359,0.479-2.072,1.978-1.589,3.331     c0.484,1.365,1.979,2.072,3.335,1.594C68.445,88.366,69.155,86.875,68.672,85.514z"
   fill="#00B5DD" />
		</g>
		<g
   style="fill:#2f3641;fill-opacity:1"
   id="g235">
			<path
   style="fill:#2f3641;fill-opacity:1"
   id="path237"
   d="M43.721,42.884c-1.245-0.731-2.844-0.313-3.576,0.927c-0.734,1.242-0.318,2.848,0.924,3.579     c1.247,0.731,2.848,0.316,3.58-0.925C45.382,45.219,44.964,43.616,43.721,42.884z"
   fill="#00B5DD" />
		</g>
		<g
   style="fill:#2f3641;fill-opacity:1"
   id="g239">
			<path
   style="fill:#2f3641;fill-opacity:1"
   id="path241"
   d="M82.548,75.463c-1.242-0.729-2.841-0.311-3.576,0.925c-0.732,1.247-0.318,2.85,0.927,3.584     c1.245,0.727,2.848,0.311,3.579-0.927C84.209,77.795,83.793,76.198,82.548,75.463z"
   fill="#00B5DD" />
		</g>
		<g
   style="fill:#2f3641;fill-opacity:1"
   id="g243">
			<path
   style="fill:#2f3641;fill-opacity:1"
   id="path245"
   d="M36.034,58.853c-1.421,0.237-2.38,1.585-2.146,3.002c0.239,1.425,1.587,2.392,3.008,2.147     c1.426-0.241,2.384-1.584,2.146-3.005C38.804,59.575,37.457,58.612,36.034,58.853z"
   fill="#00B5DD" />
		</g>
		<g
   style="fill:#2f3641;fill-opacity:1"
   id="g247">
			<path
   style="fill:#2f3641;fill-opacity:1"
   id="path249"
   d="M109.943,44.044c-1.424,0.239-2.383,1.583-2.146,3.002c0.238,1.425,1.584,2.392,3.005,2.147     c1.425-0.243,2.384-1.583,2.147-3.006C112.713,44.767,111.364,43.801,109.943,44.044z"
   fill="#00B5DD" />
		</g>
		<g
   style="fill:#2f3641;fill-opacity:1"
   id="g251">
			<path
   style="fill:#2f3641;fill-opacity:1"
   id="path253"
   d="M40.408,76.024c-0.935,1.095-0.804,2.742,0.29,3.683c1.095,0.935,2.749,0.804,3.685-0.293     c0.935-1.104,0.803-2.748-0.293-3.686C42.992,74.792,41.345,74.923,40.408,76.024z"
   fill="#00B5DD" />
		</g>
		<g
   style="fill:#2f3641;fill-opacity:1"
   id="g255">
			<path
   style="fill:#2f3641;fill-opacity:1"
   id="path257"
   d="M79.236,43.441c-0.932,1.096-0.801,2.747,0.289,3.681c1.099,0.936,2.75,0.807,3.685-0.289     c0.937-1.102,0.804-2.749-0.291-3.685C81.823,42.211,80.171,42.343,79.236,43.441z"
   fill="#00B5DD" />
		</g>
		<g
   style="fill:#2f3641;fill-opacity:1"
   id="g259">
			<path
   style="fill:#2f3641;fill-opacity:1"
   id="path261"
   d="M54.796,86.362c-0.01,1.443,1.149,2.621,2.589,2.635c1.441,0.016,2.625-1.149,2.635-2.587     c0.009-1.444-1.15-2.625-2.593-2.633C55.986,83.761,54.81,84.921,54.796,86.362z"
   fill="#00B5DD" />
		</g>
		<g
   style="fill:#2f3641;fill-opacity:1"
   id="g263">
			<path
   style="fill:#2f3641;fill-opacity:1"
   id="path265"
   d="M63.601,36.446c-0.011,1.442,1.148,2.621,2.585,2.635c1.443,0.011,2.625-1.149,2.639-2.59     c0.008-1.445-1.152-2.624-2.594-2.634C64.788,33.845,63.609,35.006,63.601,36.446z"
   fill="#00B5DD" />
		</g>
		<g
   style="fill:#2f3641;fill-opacity:1"
   id="g267">
			<path
   style="fill:#2f3641;fill-opacity:1"
   id="path269"
   d="M72.465,85.038c0.919,1.113,2.566,1.269,3.678,0.353c1.113-0.911,1.271-2.564,0.356-3.678     c-0.923-1.109-2.57-1.271-3.682-0.348C71.704,82.278,71.55,83.929,72.465,85.038z"
   fill="#00B5DD" />
		</g>
		<g
   style="fill:#2f3641;fill-opacity:1"
   id="g271">
			<path
   style="fill:#2f3641;fill-opacity:1"
   id="path273"
   d="M47.122,41.143c0.918,1.112,2.563,1.267,3.676,0.353c1.112-0.917,1.272-2.566,0.357-3.678     c-0.922-1.113-2.57-1.27-3.683-0.353C46.361,38.383,46.207,40.03,47.122,41.143z"
   fill="#00B5DD" />
		</g>
		<g
   style="fill:#2f3641;fill-opacity:1"
   id="g275">
			<path
   style="fill:#2f3641;fill-opacity:1"
   id="path277"
   d="M85.148,72.664c1.42,0.265,2.783-0.675,3.044-2.087c0.26-1.423-0.671-2.79-2.093-3.048     c-1.423-0.26-2.782,0.674-3.042,2.096C82.793,71.041,83.731,72.398,85.148,72.664z"
   fill="#00B5DD" />
		</g>
		<g
   style="fill:#2f3641;fill-opacity:1"
   id="g279">
			<path
   style="fill:#2f3641;fill-opacity:1"
   id="path281"
   d="M37.52,55.328c1.418,0.263,2.779-0.676,3.044-2.093c0.261-1.415-0.675-2.783-2.094-3.044     c-1.421-0.262-2.784,0.679-3.045,2.095C35.163,53.703,36.104,55.068,37.52,55.328z"
   fill="#00B5DD" />
		</g>
		<g
   style="fill:#2f3641;fill-opacity:1"
   id="g283">
			<path
   style="fill:#2f3641;fill-opacity:1"
   id="path285"
   d="M101.954,58.238c1.253-0.712,1.691-2.305,0.986-3.559c-0.712-1.254-2.31-1.696-3.562-0.986     c-1.259,0.714-1.697,2.308-0.985,3.561C99.104,58.509,100.7,58.948,101.954,58.238z"
   fill="#00B5DD" />
		</g>
		<g
   style="fill:#2f3641;fill-opacity:1"
   id="g287">
			<path
   style="fill:#2f3641;fill-opacity:1"
   id="path289"
   d="M39.281,72.369c1.254-0.712,1.694-2.308,0.988-3.561c-0.71-1.255-2.308-1.695-3.563-0.988     c-1.256,0.718-1.695,2.313-0.983,3.565C36.433,72.642,38.028,73.081,39.281,72.369z"
   fill="#00B5DD" />
		</g>
		<g
   style="fill:#2f3641;fill-opacity:1"
   id="g291">
			<path
   style="fill:#2f3641;fill-opacity:1"
   id="path293"
   d="M76.925,40.394c0.506-1.352-0.18-2.855-1.529-3.361c-1.348-0.504-2.858,0.181-3.362,1.531     c-0.504,1.356,0.183,2.859,1.536,3.363C74.921,42.432,76.423,41.742,76.925,40.394z"
   fill="#00B5DD" />
		</g>
		<g
   style="fill:#2f3641;fill-opacity:1"
   id="g295">
			<path
   style="fill:#2f3641;fill-opacity:1"
   id="path297"
   d="M51.585,84.29c0.503-1.35-0.181-2.853-1.53-3.361c-1.35-0.504-2.86,0.186-3.362,1.536     c-0.504,1.351,0.183,2.854,1.533,3.36C49.578,86.326,51.082,85.638,51.585,84.29z"
   fill="#00B5DD" />
		</g>
		<g
   style="fill:#2f3641;fill-opacity:1"
   id="g299">
			<path
   style="fill:#2f3641;fill-opacity:1"
   id="path301"
   d="M63.681,42.717c-0.174-1.033-1.153-1.728-2.181-1.557c-1.035,0.171-1.733,1.151-1.559,2.182     c0.175,1.036,1.154,1.73,2.184,1.559C63.157,44.728,63.854,43.75,63.681,42.717z"
   fill="#00B5DD" />
		</g>
		<g
   style="fill:#2f3641;fill-opacity:1"
   id="g303">
			<path
   style="fill:#2f3641;fill-opacity:1"
   id="path305"
   d="M63.681,79.514c-0.174-1.035-1.153-1.734-2.181-1.561c-1.035,0.176-1.733,1.156-1.559,2.187     c0.175,1.034,1.154,1.726,2.184,1.554C63.157,81.523,63.854,80.546,63.681,79.514z"
   fill="#00B5DD" />
		</g>
		<g
   style="fill:#2f3641;fill-opacity:1"
   id="g307">
			<path
   style="fill:#2f3641;fill-opacity:1"
   id="path309"
   d="M51.215,45.892c-0.796-0.68-1.994-0.584-2.672,0.209c-0.682,0.796-0.586,1.999,0.21,2.676     c0.798,0.678,1.995,0.585,2.675-0.209C52.109,47.769,52.012,46.571,51.215,45.892z"
   fill="#00B5DD" />
		</g>
		<g
   style="fill:#2f3641;fill-opacity:1"
   id="g311">
			<path
   style="fill:#2f3641;fill-opacity:1"
   id="path313"
   d="M74.867,74.075c-0.797-0.673-1.994-0.584-2.674,0.209c-0.682,0.798-0.584,2,0.212,2.682     c0.798,0.674,1.994,0.58,2.674-0.218C75.759,75.952,75.663,74.759,74.867,74.075z"
   fill="#00B5DD" />
		</g>
		<g
   style="fill:#2f3641;fill-opacity:1"
   id="g315">
			<path
   style="fill:#2f3641;fill-opacity:1"
   id="path317"
   d="M43.708,56.336c-1.045-0.008-1.902,0.834-1.912,1.883c-0.008,1.046,0.834,1.901,1.881,1.917     c1.049,0,1.904-0.84,1.912-1.888C45.598,57.201,44.754,56.347,43.708,56.336z"
   fill="#00B5DD" />
		</g>
		<g
   style="fill:#2f3641;fill-opacity:1"
   id="g319">
			<path
   style="fill:#2f3641;fill-opacity:1"
   id="path321"
   d="M79.943,62.722c-1.044-0.002-1.903,0.837-1.909,1.887c-0.011,1.045,0.83,1.901,1.877,1.913     c1.049,0.001,1.903-0.837,1.916-1.885C81.833,63.588,80.989,62.736,79.943,62.722z"
   fill="#00B5DD" />
		</g>
		<g
   style="fill:#2f3641;fill-opacity:1"
   id="g323">
			<path
   style="fill:#2f3641;fill-opacity:1"
   id="path325"
   d="M44.67,69.166c-0.807,0.661-0.921,1.861-0.257,2.668c0.665,0.802,1.864,0.925,2.669,0.257     c0.81-0.673,0.922-1.861,0.258-2.672C46.673,68.608,45.477,68.496,44.67,69.166z"
   fill="#00B5DD" />
		</g>
		<g
   style="fill:#2f3641;fill-opacity:1"
   id="g327">
			<path
   style="fill:#2f3641;fill-opacity:1"
   id="path329"
   d="M76.537,50.766c-0.808,0.667-0.922,1.862-0.26,2.668c0.668,0.81,1.865,0.924,2.67,0.259     c0.81-0.672,0.923-1.867,0.257-2.672C78.541,50.213,77.34,50.099,76.537,50.766z"
   fill="#00B5DD" />
		</g>
		<g
   style="fill:#2f3641;fill-opacity:1"
   id="g331">
			<path
   style="fill:#2f3641;fill-opacity:1"
   id="path333"
   d="M53.655,78.368c-0.19,1.034,0.49,2.021,1.517,2.209c1.028,0.194,2.02-0.488,2.209-1.516     c0.188-1.028-0.49-2.022-1.519-2.211C54.832,76.661,53.844,77.345,53.655,78.368z"
   fill="#00B5DD" />
		</g>
		<g
   style="fill:#2f3641;fill-opacity:1"
   id="g335">
			<path
   style="fill:#2f3641;fill-opacity:1"
   id="path337"
   d="M66.24,43.794c-0.189,1.03,0.489,2.019,1.517,2.209c1.028,0.193,2.021-0.491,2.21-1.518     c0.188-1.033-0.49-2.021-1.52-2.21C67.415,42.085,66.429,42.765,66.24,43.794z"
   fill="#00B5DD" />
		</g>
		<g
   style="fill:#2f3641;fill-opacity:1"
   id="g339">
			<path
   style="fill:#2f3641;fill-opacity:1"
   id="path341"
   d="M66.45,79.655c0.517,0.908,1.678,1.229,2.587,0.712c0.909-0.518,1.23-1.678,0.717-2.587     c-0.521-0.909-1.676-1.23-2.586-0.713C66.254,77.583,65.938,78.742,66.45,79.655z"
   fill="#00B5DD" />
		</g>
		<g
   style="fill:#2f3641;fill-opacity:1"
   id="g343">
			<path
   style="fill:#2f3641;fill-opacity:1"
   id="path345"
   d="M53.867,45.073c0.517,0.913,1.677,1.23,2.585,0.718c0.91-0.516,1.232-1.676,0.717-2.586     c-0.52-0.912-1.675-1.23-2.586-0.715C53.67,43.006,53.353,44.164,53.867,45.073z"
   fill="#00B5DD" />
		</g>
		<g
   style="fill:#2f3641;fill-opacity:1"
   id="g347">
			<path
   style="fill:#2f3641;fill-opacity:1"
   id="path349"
   d="M77.079,72.402c0.983,0.368,2.076-0.131,2.44-1.109s-0.131-2.078-1.113-2.448     c-0.984-0.362-2.075,0.141-2.439,1.119C75.601,70.942,76.098,72.032,77.079,72.402z"
   fill="#00B5DD" />
		</g>
		<g
   style="fill:#2f3641;fill-opacity:1"
   id="g351">
			<path
   style="fill:#2f3641;fill-opacity:1"
   id="path353"
   d="M45.215,54.007c0.98,0.363,2.072-0.133,2.44-1.112c0.364-0.98-0.133-2.076-1.113-2.442     c-0.983-0.366-2.076,0.135-2.442,1.115C43.733,52.546,44.234,53.64,45.215,54.007z"
   fill="#00B5DD" />
		</g>
		<g
   style="fill:#2f3641;fill-opacity:1"
   id="g355">
			<path
   style="fill:#2f3641;fill-opacity:1"
   id="path357"
   d="M87.465,57.721c0.986-0.349,1.503-1.44,1.154-2.42c-0.35-0.988-1.435-1.506-2.419-1.158     c-0.99,0.351-1.504,1.439-1.156,2.42C85.394,57.554,86.479,58.071,87.465,57.721z"
   fill="#00B5DD" />
		</g>
		<g
   style="fill:#2f3641;fill-opacity:1"
   id="g359">
			<path
   style="fill:#2f3641;fill-opacity:1"
   id="path361"
   d="M44.327,66.412c0.985-0.349,1.5-1.438,1.153-2.417c-0.349-0.994-1.437-1.511-2.422-1.162     c-0.988,0.351-1.503,1.44-1.153,2.421C42.256,66.244,43.341,66.762,44.327,66.412z"
   fill="#00B5DD" />
		</g>
		<g
   style="fill:#2f3641;fill-opacity:1"
   id="g363">
			<path
   style="fill:#2f3641;fill-opacity:1"
   id="path365"
   d="M75.269,48.295c0.531-0.901,0.229-2.063-0.67-2.595c-0.899-0.531-2.065-0.23-2.597,0.671     c-0.531,0.904-0.227,2.069,0.674,2.598C73.577,49.499,74.738,49.197,75.269,48.295z"
   fill="#00B5DD" />
		</g>
		<g
   style="fill:#2f3641;fill-opacity:1"
   id="g367">
			<path
   style="fill:#2f3641;fill-opacity:1"
   id="path369"
   d="M51.62,76.48c0.53-0.896,0.229-2.06-0.67-2.591c-0.902-0.531-2.069-0.233-2.6,0.67     c-0.53,0.9-0.226,2.063,0.675,2.594C49.927,77.683,51.088,77.387,51.62,76.48z"
   fill="#00B5DD" />
		</g>
		<path
   style="fill:#2f3641;fill-opacity:1"
   id="path371"
   d="M52.5,59.707c-0.946,5.139,2.449,10.074,7.58,11.031c5.139,0.951,10.09-2.448,11.04-7.586    c0.943-5.15-2.459-10.087-7.594-11.035C58.386,51.166,53.451,54.571,52.5,59.707z"
   fill="#00B5DD" />
	</g>
</g>
<g
   style="fill:#2f3641;fill-opacity:1"
   id="PANTONE_black_C">
	<path
   style="fill:#2f3641;fill-opacity:1"
   id="path374"
   d="M168.217,75.565h-7.331v-4.156c-1.307,1.848-2.833,3.222-4.578,4.122s-3.745,1.352-5.997,1.352   c-4.527,0-8.092-1.549-10.693-4.646s-3.902-7.337-3.902-12.721c0-5.113,1.329-9.24,3.987-12.382   c2.657-3.143,6.126-4.713,10.406-4.713c2.612,0,4.848,0.546,6.706,1.639c1.858,1.093,3.215,2.664,4.071,4.713v-5.237h7.331V75.565z    M161.089,59.449c0-3.312-0.772-5.89-2.314-7.737c-1.543-1.847-3.7-2.77-6.471-2.77c-2.77,0-4.949,0.952-6.537,2.854   c-1.588,1.904-2.382,4.544-2.382,7.923c0,3.4,0.766,6.025,2.297,7.872c1.532,1.847,3.694,2.771,6.487,2.771   c2.636,0,4.78-1.002,6.437-3.007C160.261,65.35,161.089,62.715,161.089,59.449z"
   fill="#15120A" />
	<path
   style="fill:#2f3641;fill-opacity:1"
   id="path376"
   d="M178.691,75.565v-32.03h7.331v32.03H178.691z"
   fill="#15120A" />
	<path
   style="fill:#2f3641;fill-opacity:1"
   id="path378"
   d="M203.828,48.637c0.788-2.117,1.829-3.683,3.125-4.696c1.295-1.014,2.899-1.521,4.814-1.521   c1.036,0,2.056,0.124,3.058,0.372c1.002,0.248,1.987,0.608,2.956,1.081l-2.635,6.217c-0.631-0.45-1.313-0.782-2.045-0.997   c-0.731-0.214-1.548-0.321-2.449-0.321c-2.433,0-4.178,0.975-5.236,2.923c-1.06,1.948-1.588,5.22-1.588,9.815v14.055h-7.332V43.468   h7.332V48.637z"
   fill="#15120A" />
</g>
</svg>
