<?xml version="1.0" encoding="utf-8"?>
<svg viewBox="83.798 180.268 100 74.732" width="100" height="74.732" xmlns="http://www.w3.org/2000/svg">
  <path d="M 128.344 180.268 C 142.662 180.268 155.252 190.157 158.715 203.937 C 165.677 206.604 170.975 212.635 172.693 219.919 C 172.944 221.002 172.281 222.085 171.199 222.336 C 170.116 222.595 169.033 221.924 168.782 220.841 C 167.306 214.541 162.554 209.378 156.389 207.374 C 155.709 207.15 155.199 206.577 155.046 205.879 C 152.389 193.369 141.158 184.286 128.344 184.286 C 115.458 184.286 104.219 193.423 101.606 206.031 C 101.463 206.72 100.961 207.284 100.299 207.517 C 92.827 210.139 87.807 217.226 87.807 225.145 C 87.807 235.293 95.744 243.49 105.874 243.812 C 105.928 243.812 105.982 243.812 106.035 243.821 L 109.293 243.821 C 110.393 243.821 111.297 244.716 111.297 245.825 C 111.297 246.935 110.402 247.83 109.293 247.83 L 105.812 247.83 C 105.713 247.83 105.615 247.83 105.516 247.812 C 93.319 247.293 83.798 237.378 83.798 225.136 C 83.798 215.884 89.427 207.579 97.928 204.116 C 101.328 190.228 113.937 180.268 128.344 180.268 Z M 154.259 217.333 C 158.545 217.333 162.178 218.783 165.078 221.646 C 167.977 224.519 169.445 228.098 169.445 232.286 C 169.445 236.438 167.977 240.009 165.087 242.908 C 162.196 245.808 158.617 247.275 154.465 247.275 C 150.268 247.275 146.671 245.816 143.771 242.935 C 140.872 240.054 139.404 236.519 139.404 232.421 C 139.404 229.7 140.076 227.15 141.391 224.823 C 142.715 222.497 144.541 220.644 146.823 219.32 C 149.105 218.004 151.61 217.333 154.259 217.333 Z M 177.695 228.778 C 179.431 228.778 180.863 229.36 181.964 230.506 C 183.055 231.642 183.601 233.002 183.601 234.541 C 183.601 235.597 183.342 236.608 182.832 237.539 C 182.375 238.38 181.543 239.445 180.299 240.796 L 178.671 242.55 L 182.474 242.55 C 183.208 242.55 183.798 243.141 183.798 243.875 L 183.798 245.306 C 183.798 246.04 183.208 246.631 182.474 246.631 L 172.407 246.631 C 171.879 246.631 171.404 246.318 171.19 245.834 C 170.975 245.351 171.073 244.787 171.431 244.403 L 177.096 238.282 C 178.438 236.841 178.957 236.125 179.163 235.776 C 179.395 235.382 179.503 234.989 179.503 234.559 C 179.503 234.085 179.342 233.718 178.975 233.36 C 178.608 233.002 178.17 232.832 177.615 232.832 C 177.024 232.832 176.568 233.002 176.192 233.387 C 175.789 233.79 175.565 234.389 175.503 235.212 C 175.449 235.902 174.868 236.438 174.178 236.438 L 172.756 236.438 C 172.398 236.438 172.058 236.295 171.807 236.036 C 171.557 235.785 171.422 235.436 171.431 235.078 C 171.476 233.271 172.102 231.758 173.284 230.577 C 174.474 229.387 175.959 228.778 177.695 228.778 Z M 154.384 222.506 C 152.702 222.506 151.091 222.953 149.579 223.83 C 148.049 224.725 146.885 225.888 146.026 227.391 C 145.176 228.877 144.747 230.568 144.747 232.412 C 144.747 235.159 145.668 237.414 147.565 239.302 C 149.463 241.19 151.691 242.112 154.375 242.112 C 156.174 242.112 157.794 241.682 159.324 240.814 C 160.845 239.946 161.999 238.792 162.841 237.297 C 163.682 235.803 164.111 234.121 164.111 232.286 C 164.111 230.47 163.691 228.805 162.85 227.347 C 162.017 225.897 160.809 224.707 159.279 223.83 C 157.749 222.953 156.102 222.506 154.384 222.506 Z" id="Combined-Shape" fill="#313132" stroke="none" stroke-width="1" fill-rule="evenodd"/>
  <text style="fill: rgb(51, 51, 51); font-family: Arial, sans-serif; font-size: 40px; font-weight: 700; white-space: pre;" x="111.278" y="247">N</text>
</svg>