<svg height='300px' width='300px'  fill="#000000" xmlns:dc="http://purl.org/dc/elements/1.1/" xmlns:cc="http://creativecommons.org/ns#" xmlns:rdf="http://www.w3.org/1999/02/22-rdf-syntax-ns#" xmlns:svg="http://www.w3.org/2000/svg" xmlns="http://www.w3.org/2000/svg" xmlns:sodipodi="http://sodipodi.sourceforge.net/DTD/sodipodi-0.dtd" xmlns:inkscape="http://www.inkscape.org/namespaces/inkscape" viewBox="0 0 8.4666667 8.4666669" version="1.1" x="0px" y="0px"><svg:g><svg:path style="color:#000000;font-style:normal;font-variant:normal;font-weight:normal;font-stretch:normal;font-size:medium;line-height:normal;font-family:sans-serif;font-variant-ligatures:normal;font-variant-position:normal;font-variant-caps:normal;font-variant-numeric:normal;font-variant-alternates:normal;font-feature-settings:normal;text-indent:0;text-align:start;text-decoration:none;text-decoration-line:none;text-decoration-style:solid;text-decoration-color:#000000;letter-spacing:normal;word-spacing:normal;text-transform:none;writing-mode:lr-tb;direction:ltr;text-orientation:mixed;dominant-baseline:auto;baseline-shift:baseline;text-anchor:start;white-space:normal;shape-padding:0;clip-rule:nonzero;display:inline;overflow:visible;visibility:visible;opacity:1;isolation:auto;mix-blend-mode:normal;color-interpolation:sRGB;color-interpolation-filters:linearRGB;solid-color:#000000;solid-opacity:1;vector-effect:none;fill:#000000;fill-opacity:1;fill-rule:nonzero;stroke:none;stroke-width:0.52916276;stroke-linecap:round;stroke-linejoin:round;stroke-miterlimit:4;stroke-dasharray:none;stroke-dashoffset:0;stroke-opacity:1;paint-order:stroke fill markers;color-rendering:auto;image-rendering:auto;shape-rendering:auto;text-rendering:auto;enable-background:accumulate" d="m 2.3035033,0.54130687 c -0.58889,7e-5 -1.17944,0.227419 -1.62904997,0.67703903 -0.89927,0.899263 -0.89927,2.358592 0,3.257856 l 0.48767997,0.487676 2.88408,2.884081 a 0.26460778,0.26460778 0 0 0 0.37401,0 l 2.883851,-2.884081 0.487909,-0.487676 a 0.26460778,0.26460778 0 0 0 2.3e-4,0 c 0.89927,-0.899263 0.89927,-2.358593 0,-3.257856 -0.89926,-0.89926603 -2.35902,-0.89964903 -3.25832,-2.35e-4 l -0.30068,0.30067 -0.3009,-0.30067 C 3.4827233,0.76854987 2.8923343,0.54147287 2.3035033,0.54154187 Z m 3.85943,0.52705703 v 2.37e-4 c 0.452851,6.6e-5 0.90579,0.174742 1.25504,0.523992 0.69847,0.698473 0.69842,1.810862 0,2.509362 l -0.487919,0.487677 a 0.26460778,0.26460778 0 0 0 -2.31e-4,2.36e-4 l -2.69661,2.69684 -2.69684,-2.69684 -0.48791,-0.487913 c -0.69848997,-0.698495 -0.69848997,-1.810866 0,-2.509362 0.34927,-0.349256 0.80138,-0.522041 1.25504,-0.522106 0.45367,-7e-5 0.90529,0.172362 1.25456,0.521634 l 0.48815,0.487912 a 0.26460778,0.26460778 0 0 0 0.37401,-2.35e-4 l 0.48791,-0.487677 c 0.34922,-0.349215 0.80195,-0.523834 1.2548,-0.523757 z m -1.54698,1.563724 a 0.26460778,0.26460778 0 0 0 -0.24313,0.179224 l -0.64237,1.885618 -0.5148,-0.755804 a 0.26460778,0.26460778 0 0 0 -0.21861,-0.115552 h -0.8131 a 0.26460778,0.26460778 0 1 0 0,0.529181 h 0.67326 l 0.73435,1.077934 a 0.26460778,0.26460778 0 0 0 0.46904,-0.06367 l 0.64238,-1.885617 0.51479,0.755803 a 0.26460778,0.26460778 0 0 0 0.21861,0.115552 h 0.813111 a 0.26460778,0.26460778 0 1 0 0,-0.529181 h -0.673271 l -0.73434,-1.077933 a 0.26460778,0.26460778 0 0 0 -0.22592,-0.115553 z"></svg:path></svg:g></svg>