<svg height='300px' width='300px'  fill="#000000" xmlns="http://www.w3.org/2000/svg" xmlns:xlink="http://www.w3.org/1999/xlink" version="1.1" x="0px" y="0px" viewBox="0 0 80 80" enable-background="new 0 0 80 80" xml:space="preserve"><g><path d="M36.188,67.965C24.305,65.685,25.732,53.414,25.8,52.893c0.069-0.547-0.317-1.048-0.864-1.119   c-0.537-0.072-1.049,0.314-1.119,0.861c-0.02,0.146-1.753,14.656,11.995,17.295c0.063,0.012,0.127,0.018,0.189,0.018   c0.47,0,0.89-0.333,0.981-0.812C37.086,68.594,36.73,68.069,36.188,67.965z"></path><path d="M49.059,6.849c-0.298,0.004-0.577,0.14-0.765,0.371c-0.257,0.317-5.9,7.354-8.877,15.525   c-1.461-1.998-2.484-3.243-2.647-3.44c-0.381-0.457-1.158-0.457-1.539,0C34.528,20.15,18.028,40.219,18.308,57.49   c0,9.756,7.937,17.692,17.692,17.692s17.692-7.937,17.692-17.676c0.074-4.563-1.027-9.318-2.693-13.864   c2.575-0.354,4.948-1.534,6.79-3.425c2.19-2.246,3.375-5.211,3.335-8.333C61.163,20.624,50.295,7.743,49.832,7.2   C49.641,6.975,49.369,6.867,49.059,6.849z M36,73.183c-8.652,0-15.692-7.04-15.692-15.709C20.074,43.003,32.717,25.774,36,21.551   c2.205,2.837,8.63,11.545,12.542,21.346c0.023,0.163,0.083,0.308,0.174,0.436c1.818,4.659,3.05,9.547,2.976,14.157   C51.692,66.143,44.652,73.183,36,73.183z M50.257,41.716c-2.723-6.717-6.529-12.824-9.411-16.967   c2.127-6.644,6.488-12.919,8.246-15.282c2.489,3.178,10.063,13.58,10.033,22.428C59.19,37.014,55.273,41.265,50.257,41.716z"></path><path d="M23.458,24.239c0.108-6.661-6.171-14.301-6.438-14.622c-0.19-0.229-0.472-0.361-0.77-0.361   c-0.297,0-0.579,0.133-0.77,0.361c-0.268,0.321-6.548,7.961-6.439,14.605c0,3.975,3.234,7.209,7.209,7.209   S23.458,28.197,23.458,24.239z M16.25,29.432c-2.872,0-5.209-2.337-5.209-5.226c-0.075-4.621,3.577-10.1,5.209-12.312   c1.632,2.213,5.283,7.693,5.208,12.328C21.458,27.095,19.122,29.432,16.25,29.432z"></path></g></svg>